<svg width="142" height="96" viewBox="0 0 142 96" fill="none" xmlns="http://www.w3.org/2000/svg">
<path d="M136.554 52.8198C88.6805 46.3102 103.829 4.29997 73.0287 0.25948C51.0781 -2.61784 25.9169 18.843 12.0201 44.3375C3.2453 60.4451 -0.537403 74.8854 0.0611877 88H134.295C143.254 69.4301 144.417 53.8946 136.554 52.8198Z" fill="#1E80FF"/>
<path d="M79.2187 34.7125C80.9243 34.7125 82.3069 33.3299 82.3069 31.6243C82.3069 29.9188 80.9243 28.5361 79.2187 28.5361C77.5132 28.5361 76.1306 29.9188 76.1306 31.6243C76.1306 33.3299 77.5132 34.7125 79.2187 34.7125Z" fill="#2242C6"/>
<path d="M58.6625 28.7945C60.3681 28.7945 61.7507 27.4119 61.7507 25.7063C61.7507 24.0008 60.3681 22.6182 58.6625 22.6182C56.957 22.6182 55.5743 24.0008 55.5743 25.7063C55.5743 27.4119 56.957 28.7945 58.6625 28.7945Z" fill="#2242C6"/>
<path d="M81.2049 43.8951C67.0428 43.8951 58.5605 39.6846 53.9146 36.1135C48.7518 32.1478 47.0988 28.1753 47.0308 28.0121C46.9084 27.7128 47.0512 27.3659 47.3573 27.2434C47.6566 27.121 48.0035 27.2638 48.126 27.5699C48.1872 27.7196 54.6492 42.7184 81.2049 42.7184C81.4362 42.7184 81.6675 42.7184 81.9055 42.7184C82.2184 42.7388 82.4973 42.9768 82.5041 43.3034C82.5041 43.6299 82.2456 43.8951 81.9191 43.9019C81.6743 43.8951 81.443 43.8951 81.2049 43.8951Z" fill="#2242C6"/>
<path d="M42.7794 30.121C42.4938 30.121 42.2421 29.9101 42.1945 29.6244C42.1468 29.3047 42.3645 28.9986 42.6842 28.951C49.3095 27.9103 49.5 23.346 49.5068 23.1487C49.5136 22.829 49.7789 22.5706 50.0986 22.5706C50.1054 22.5706 50.1054 22.5706 50.1122 22.5706C50.4387 22.5774 50.6972 22.8426 50.6904 23.1691C50.6904 23.2236 50.5135 28.917 42.8679 30.1142C42.8475 30.1142 42.8135 30.121 42.7794 30.121Z" fill="#2242C6"/>
<path d="M91.4965 60.0642L91.5033 63.4993C91.5033 64.336 91.9183 65.125 92.6121 65.5944L95.4486 67.533C97.1899 68.7302 96.809 71.4034 94.8024 72.0632L91.5373 73.1312C90.7415 73.3897 90.1225 74.0291 89.8844 74.8317L88.9117 78.1308C88.3131 80.1578 85.6535 80.6204 84.4087 78.913L82.3816 76.1377C81.8851 75.4575 81.0892 75.0698 80.2525 75.0902L76.8174 75.1854C74.702 75.2467 73.4436 72.8523 74.6816 71.1449L76.695 68.3629C77.1848 67.6826 77.314 66.8052 77.0283 66.0161L75.8787 62.7783C75.1713 60.7852 77.0487 58.8466 79.0622 59.4928L82.334 60.5472C83.1299 60.8056 84.0073 60.656 84.6739 60.139L87.3948 58.044C89.0613 56.7584 91.4897 57.9487 91.4965 60.0642Z" fill="#FFD426"/>
<path d="M87.5513 73.6142C87.4561 73.3013 87.1296 73.1244 86.8167 73.2197C86.4493 73.3285 85.8099 73.2809 85.4222 73.1176C85.0209 72.9476 84.7624 72.6891 84.6332 72.3354C84.3883 71.6484 84.64 70.7437 84.9393 70.1723C85.0889 69.8798 84.9733 69.5261 84.6876 69.3764C84.4019 69.2268 84.0414 69.3424 83.8917 69.6281C83.6605 70.0771 83.4632 70.6552 83.3884 71.2606C82.851 71.3763 81.5926 71.4851 80.9668 70.8661C80.4022 70.3083 80.1437 69.6689 80.2254 69.0159C80.307 68.3629 80.7287 67.7575 81.3613 67.3834C81.6402 67.2201 81.7354 66.8596 81.5722 66.5739C81.4089 66.295 81.0416 66.1998 80.7627 66.3631C79.8172 66.9208 79.1778 67.8527 79.0554 68.8663C78.9261 69.8798 79.3139 70.8865 80.1437 71.7028C80.8103 72.3626 81.7558 72.519 82.5109 72.519C82.8918 72.519 83.2183 72.4782 83.4496 72.4442C83.47 72.5394 83.4972 72.6347 83.5312 72.7299C83.7693 73.3965 84.2727 73.9067 84.9733 74.1992C85.3678 74.3624 85.8644 74.4508 86.3337 74.4508C86.633 74.4508 86.9255 74.4168 87.1704 74.342C87.4629 74.2604 87.6397 73.9271 87.5513 73.6142Z" fill="#FF8523"/>
<path d="M38.1879 44.3374C38.1879 44.3374 35.1133 60.2681 54.8804 83.8852C67.1855 98.5915 30.8211 99.7275 12.02 84.2457" fill="#1E80FF"/>
<path d="M44.5073 95.9999C34.3245 95.9999 20.6385 92.1091 11.646 84.7015C11.3944 84.4974 11.3604 84.1233 11.5644 83.8716C11.7685 83.62 12.1426 83.5859 12.3943 83.79C18.7271 89.0073 27.7876 92.8165 37.2494 94.2449C45.7181 95.5238 52.942 94.585 55.6493 91.8574C57.4927 90.0004 57.0777 87.4428 54.4181 84.2662C34.7122 60.7035 37.4807 44.8884 37.6099 44.2286C37.6711 43.9089 37.984 43.7048 38.3037 43.7593C38.6234 43.8205 38.8343 44.1266 38.7731 44.4531C38.7459 44.6095 36.0182 60.4314 55.3364 83.5111C59.4245 88.3951 57.8192 91.3608 56.4995 92.6872C54.282 94.9116 49.8878 95.9999 44.5073 95.9999Z" fill="#2242C6"/>
</svg>
